<svg width="120" height="120" viewBox="0 0 120 120" fill="none" xmlns="http://www.w3.org/2000/svg">
<path d="M39 40L39 84C39 86.2091 40.7909 88 43 88H77C79.2091 88 81 86.2091 81 84V40" stroke="white" stroke-width="4" stroke-linecap="round" stroke-linejoin="round"/>
<path d="M53 50L53 78" stroke="white" stroke-width="4" stroke-linecap="round" stroke-linejoin="round"/>
<path d="M67 50L67 78" stroke="white" stroke-width="4" stroke-linecap="round" stroke-linejoin="round"/>
<path d="M85 40H81L39 40H35" stroke="white" stroke-width="4" stroke-linecap="round" stroke-linejoin="round"/>
<path d="M47.8552 39.9984L46.2916 38.7514C45.8126 39.3521 45.72 40.174 46.0533 40.8662C46.3866 41.5583 47.087 41.9984 47.8552 41.9984V39.9984ZM72.145 39.9984V41.9984C72.9132 41.9984 73.6136 41.5583 73.9469 40.8662C74.2802 40.174 74.1876 39.3521 73.7086 38.7514L72.145 39.9984ZM53.9257 32.3862V30.3862C53.3171 30.3862 52.7416 30.6634 52.3621 31.1393L53.9257 32.3862ZM66.0745 32.3862L67.6381 31.1393C67.2587 30.6634 66.6831 30.3862 66.0745 30.3862V32.3862ZM47.8552 41.9984H72.145V37.9984H47.8552V41.9984ZM49.4189 41.2454L55.4894 33.6332L52.3621 31.1393L46.2916 38.7514L49.4189 41.2454ZM53.9257 34.3862H66.0745V30.3862L53.9257 30.3862V34.3862ZM64.5108 33.6332L70.5813 41.2454L73.7086 38.7514L67.6381 31.1393L64.5108 33.6332Z" fill="white"/>
</svg>
